<svg width="1200" height="220" viewBox="0 0 1200 220" xmlns="http://www.w3.org/2000/svg" role="img" aria-label="Runtime flow">
  <rect width="1200" height="220" fill="#0b1220"/>
  <g font-family="Segoe UI, Arial, sans-serif" font-size="16" fill="#e2e8f0" text-anchor="middle">
    <rect x="40" y="70" width="180" height="76" rx="12" fill="#1f2937" stroke="#334155"/>
    <text x="130" y="102">Command</text><text x="130" y="124">Trigger</text>
    <rect x="270" y="70" width="180" height="76" rx="12" fill="#1f2937" stroke="#334155"/>
    <text x="360" y="102">Gherkin</text><text x="360" y="124">Parse</text>
    <rect x="500" y="70" width="180" height="76" rx="12" fill="#1f2937" stroke="#334155"/>
    <text x="590" y="102">Command</text><text x="590" y="124">Build</text>
    <rect x="730" y="70" width="180" height="76" rx="12" fill="#1f2937" stroke="#334155"/>
    <text x="820" y="102">Shell</text><text x="820" y="124">Execute</text>
    <rect x="960" y="70" width="180" height="76" rx="12" fill="#1f2937" stroke="#334155"/>
    <text x="1050" y="102">Terminal +</text><text x="1050" y="124">Testing API</text>
  </g>
  <g stroke="#22c55e" stroke-width="3" fill="none" stroke-linecap="round">
    <path d="M220 108h40"/><path d="M450 108h40"/><path d="M680 108h40"/><path d="M910 108h40"/>
    <path d="M252 100l10 8-10 8"/><path d="M482 100l10 8-10 8"/><path d="M712 100l10 8-10 8"/><path d="M942 100l10 8-10 8"/>
  </g>
</svg>